<?xml version="1.0" encoding="utf-8"?>
<!-- Generator: Adobe Illustrator 16.0.0, SVG Export Plug-In . SVG Version: 6.00 Build 0)  -->
<!DOCTYPE svg PUBLIC "-//W3C//DTD SVG 1.1//EN" "http://www.w3.org/Graphics/SVG/1.1/DTD/svg11.dtd">
<svg version="1.1" xmlns="http://www.w3.org/2000/svg" xmlns:xlink="http://www.w3.org/1999/xlink" x="0px" y="0px" width="350px"
	 height="350px" viewBox="0 0 350 350" enable-background="new 0 0 350 350" xml:space="preserve">
<g id="Lager_2" display="none">
	<polygon display="inline" fill="#F2E9E2" points="137.512,282.943 282.724,278.151 243.097,238.524 160.415,236.619 	"/>
	<path display="inline" opacity="0.8" fill="#65C3C9" d="M38.97,248.688c1.892,0,25.808-15.497,25.808-15.497l91.753,5.228
		l-12.432,21.351L38.97,248.688z"/>
	<path display="inline" fill="#FFFFFF" d="M102.499,278.151c1.621,0.54,128.787-12.955,128.787-12.955l-22.48-19.813l-112,2.765
		L102.499,278.151z"/>
	<path display="inline" fill="#F15A24" d="M103.64,276.418c1.621,0.54,124.611-12.119,124.611-12.119l-20.198-18.023l-109.074,3.107
		L103.64,276.418z"/>
	<path display="inline" opacity="0.8" fill="#8CCCDE" d="M266.474,259.327c2.667,0,57.179-14.295,57.179-14.295l-27.035-18.646
		l-4.749-0.436l8.764,5.715l-2.667,10.288l-48.771-1.144L266.474,259.327z"/>
	<path display="inline" opacity="0.8" fill="#8CCCDE" d="M57.919,252.241l-19.433,21.338c0,0,91.827,14.859,92.97,14.859
		s8.001-13.717,8.001-13.717l-36.959,3.43l-4.191-21.719L57.919,252.241z"/>
	<polygon display="inline" fill="#F2E9E2" points="293.82,224.212 298.171,217.064 265.853,212.093 290.091,224.833 	"/>
	<polyline display="inline" opacity="0.8" fill="#3AA247" points="299.414,253.111 319.612,280.769 148.699,291.023 
		150.563,284.809 287.294,278.904 268.339,260.569 298.171,253.111 	"/>
	<path display="inline" opacity="0.8" fill="#8CC646" d="M293.82,287.294L111.409,297.86l6.836-9.013c0,0,13.673,0.933,14.916,1.243
		s3.418-4.661,3.418-4.661l11.809-0.932l-2.175,9.322l145.432-10.255L293.82,287.294z"/>
	<path display="inline" fill="#F2E9E2" d="M50,250.937c0,0-31.817,19.888-30.574,19.888s81.681,32.629,81.681,32.629l13.697-15.848
		l-79.529-13.362l19.888-22.374L50,250.937z"/>
	<polygon display="inline" opacity="0.8" fill="#8CC646" points="48.465,241.798 33.011,236.121 78.259,213.042 89.575,213.915 
		71.287,230.09 71.899,232.721 65.129,232.044 	"/>
	<path display="inline" fill="#FFFFFF" d="M176.633,251.144c0,0,3.904,5.316,4.236,5.233s26.581-1.496,26.581-1.496l-3.239-5.814
		l-28.077,1.828"/>
</g>
<g id="Lager_1">
	<g display="none">
		<polygon display="inline" fill="#BC9F82" points="41.838,257.436 330.306,255.715 332.533,282.507 39.821,281.354 		"/>
		<path display="inline" fill="#BC9F82" d="M45.294,283.636c0,0,282.216,0.757,283.527,0.757s-3.058,51.86-3.058,51.86
			l-275.227,0.758L45.294,283.636z"/>
		<path display="inline" fill="#7F644B" d="M229.396,306.141c0,0-76.482-1.218-79.808,0c-3.326,1.219-8.73,13.404,0.831,15.843
			c9.561,2.438,69.832,1.828,78.561,0.61C237.71,321.375,238.125,306.141,229.396,306.141z"/>
		<path display="inline" fill="#BC9F82" d="M299.416,240.671l0.33-8.551l-1.461-1.604l-28.371-16.018
			c0.454,0,8.926,0.907,8.926,0.907l33.427,25.547l17.097,13.602l-287.236,1.44c0,0,42.001-41.496,42.001-41.496l5.598-0.454
			l-17.852,15.432l-0.303,1.815l0.751,4.787l1.216,5.507L299.416,240.671z"/>
	</g>
	<g>
		<path fill="#E54848" d="M62.833,283.828c0,0,220.187,1.92,219.777-0.281c-0.408-2.201,3.244-40.894,3.244-40.894l-223.753-5.7
			L62.833,283.828z"/>
		<polygon fill="#FFFFFF" points="102.081,282.812 101.273,240.846 147.722,241.472 145.535,283.128 		"/>
		<path fill="#666666" d="M282.369,201.232c0,0-77.747-2.673-92.251-3.057c-2.467-0.065-9.137,5.622-11.67,5.558
			c-54.739-4.724-114.857-8.072-114.593-6.586c0.348,1.956,1.231,39.062,1.231,39.062l217.523,3.663L282.369,201.232z"/>
		<polygon fill="#FFFFFF" points="236.854,202.092 234.635,237.618 197.31,237.013 197.107,200.68 		"/>
		<g>
			<path fill="#F2E9E2" d="M100.318,308.778c0,0-50.913,27.133-57.555,8.312c-7.001-19.835,6.587-50.875,4.205-64.338l-19.855,9.503
				c0,0-1.531,21.487,0.32,37.598c1.851,16.111,19.253,27.63,29.567,30.055c16.154,3.799,23.376,1.826,29.951-0.559
				s16.972-3.05,16.972-3.05l-1.463-8.672L100.318,308.778z"/>
			<path fill="#8E8780" d="M31.002,263.662c0.322-0.118,11.294-5.516,11.294-5.516l-0.63,7.18l-10.867,5.285L31.002,263.662z"/>
			<path fill="#8E8780" d="M30.324,276.079c0.323,0.03,6.237-3.094,6.237-3.094s-1.036,7.156-1.494,11.84
				c-0.457,4.684-0.754,15.635-0.754,15.635l-4.038-0.924c0,0-0.324-6.902-0.454-12.227S30.324,276.079,30.324,276.079z"/>
			<polygon fill="#8E8780" points="99.813,324.413 97.537,312.699 93.545,314.623 94.891,325.284 			"/>
			<polyline fill="#8E8780" points="85.431,327.296 83.932,317.678 86.955,316.398 88.014,326.975 85.117,327.825 			"/>
		</g>
		<g>
			<path fill="#F2E9E2" d="M243.435,299.822c14.125,1.082,51.09,15.286,51.779,5.742c1.272-17.615,8.087-27.479,13.854-27.713
				s14.371,10.479,14.371,10.479l-15.868,14.698c0,0-3.926-8.997-7.846-2.766c-3.919,6.23,0.931,17.533-15.218,20.769
				c-16.148,3.236-37.661-10.799-50.065-7.595c-12.405,3.205-15.914,11.31-16.837,11.771c-0.923,0.463-9.432-11.98-1.59-16.136
				C223.858,304.917,229.31,298.742,243.435,299.822z"/>
			<polygon fill="#8E8780" points="318.21,287.347 307.825,298.727 305.681,294.936 314.087,282.564 			"/>
			<polygon fill="#8E8780" points="231.02,311.951 226.817,304.712 233.55,302.465 236.159,310.862 			"/>
		</g>
		<path fill="#387BA0" d="M62.764,327.794c0,0,221.049-0.312,220.692-2.265c-0.358-1.954-1.127-39.446-1.127-39.446l-219.235-1.119
			L62.764,327.794z"/>
		<polygon fill="#FFFFFF" points="110.757,324.979 109.828,287.449 153.745,287.85 154.74,325.584 		"/>
	</g>
	<g>
		<path fill="#E6E6E6" d="M142.104,187.563c0.911,0,95.936,0.355,145.285,1.075c17.113,0.249,30.148,5.537,30.148,5.537
			l-28.367-16.574l-2.889,7.583l-213.75-1.083l-1.387-5.422l-22.789,12.112l19.689-3.076L139,187L142.104,187.563z"/>
		<path fill="#E6E6E6" d="M68.586,170.692l-28.739,17.271c0,0,15.06-6.908,19.731-5.957C60.311,182.25,71,177.727,71,177.727v-3.811
			l6.282-3.313L68.586,170.692z"/>
		<polygon fill="#E6E6E6" points="286.467,189.562 312.309,201.866 304.002,192.33 		"/>
		<path fill="#E6E6E6" d="M68.692,189.562l-20.284,5.001c0,0,15.004-0.278,20.839,0s83.637,4.446,85.304,5.002
			s22.786,2.5,23.619,2.5s13.338-8.612,14.171-8.335s8.613-3.612,8.613-3.612l-131.429-0.834"/>
		<path fill="#E6E6E6" d="M205.957,189.84l-13.06,7.225c0,0,82.525,1.944,83.637,2.223s25.562,2.5,26.396,2.778
			s-18.061-11.114-18.061-11.114L205.957,189.84z"/>
	</g>
	<g>
		<polygon fill="#CCCCCC" points="93.42,162.631 259.9,163.482 287.852,174.974 71.977,173.933 		"/>
		<path fill="#808080" d="M94.038,160.856c1.896,0,165.411,0.301,165.411,0.301l6.191-110.093l-1.869-2.833
			c0,0-168.772-0.415-169.604-0.318s-3.564,1.977-3.516,2.953S94.038,160.856,94.038,160.856z"/>
		<polygon fill="#18ABD3" points="98.333,55.52 100.184,152.878 254.738,154.555 258.025,55.132 		"/>
		<polyline fill="#18ABD3" points="257.635,63.176 258.025,55.132 98.333,55.52 98.568,63.904 		"/>
		<path fill="#CCCCCC" d="M71.431,174.865c0.506,0,101.898,0.71,101.898,0.71s2.485,3.754,3.949,4.422s18.087,0.694,19.939,0.188
			s3.843-3.6,4.349-3.6s86.269-0.336,86.269-0.336l-1.96,7.378L72.74,182.82L71.431,174.865z"/>
		<path fill="#808080" d="M107.57,165.054c0,0-7.377,5.846-6.82,5.846c53.81,0,51.553,0.462,160.198,0.929l-9.452-6.236
			L107.57,165.054z"/>
		<g>
			<path fill="#FFFFFF" d="M158.312,138.323c-3.544,0-6.417-2.87-6.417-6.414V80.898c0-3.546,2.873-6.42,6.417-6.42
				c3.547,0,6.422,2.874,6.422,6.42v51.011C164.734,135.453,161.859,138.323,158.312,138.323z"/>
			<path fill="#FFFFFF" d="M208.361,138.431c-9.559-0.845-17.241-3.332-24.238-7.762c-8.581-5.434-15.794-13.692-23.663-23.144
				c-2.155-2.578-1.952-6.384,0.461-8.724l23.093-22.348c2.546-2.466,6.61-2.399,9.074,0.151c2.467,2.545,2.401,6.61-0.145,9.078
				l-18.779,18.173c12.353,14.396,20.156,20.561,35.756,21.835c5.688,0.465,7.141,4.203,7.097,6.188
				C216.865,138.441,210.885,138.655,208.361,138.431z"/>
		</g>
	</g>
</g>
<g id="Lager_3" display="none">
	<g display="inline">
		<polygon fill="#F2E9E2" points="132.512,287.943 277.724,283.151 238.097,243.524 155.414,241.619 		"/>
		<path opacity="0.8" fill="#65C3C9" d="M33.97,253.688c1.892,0,25.808-15.497,25.808-15.497l91.754,5.228L139.1,264.769
			L33.97,253.688z"/>
		<path fill="#FFFFFF" d="M97.498,283.151c1.621,0.54,128.787-12.955,128.787-12.955l-22.48-19.813l-112,2.765L97.498,283.151z"/>
		<path fill="#F15A24" d="M98.64,281.418c1.621,0.54,124.611-12.119,124.611-12.119l-20.198-18.023l-109.074,3.107L98.64,281.418z"
			/>
		<path opacity="0.8" fill="#8CCCDE" d="M261.474,264.327c2.667,0,57.179-14.295,57.179-14.295l-27.035-18.646l-4.749-0.436
			l8.764,5.715l-2.667,10.288l-48.771-1.144L261.474,264.327z"/>
		<path opacity="0.8" fill="#8CCCDE" d="M52.919,257.241l-19.433,21.338c0,0,91.827,14.859,92.971,14.859
			c1.143,0,8.001-13.717,8.001-13.717l-36.96,3.43l-4.191-21.719L52.919,257.241z"/>
		<polygon fill="#F2E9E2" points="288.82,229.212 293.171,222.064 260.853,217.093 285.091,229.833 		"/>
		<polyline opacity="0.8" fill="#3AA247" points="294.414,258.111 314.612,285.769 143.699,296.023 145.563,289.809 
			282.294,283.904 263.339,265.569 293.171,258.111 		"/>
		<path opacity="0.8" fill="#8CC646" d="M288.82,292.294L106.408,302.86l6.837-9.013c0,0,13.673,0.933,14.916,1.243
			s3.419-4.661,3.419-4.661l11.809-0.932l-2.176,9.322l145.432-10.255L288.82,292.294z"/>
		<path fill="#F2E9E2" d="M45,255.937c0,0-31.817,19.888-30.574,19.888s81.681,32.629,81.681,32.629l13.696-15.848l-79.528-13.362
			l19.888-22.374L45,255.937z"/>
		<polygon opacity="0.8" fill="#8CC646" points="43.465,246.798 28.012,241.121 73.26,218.042 84.574,218.915 66.287,235.09 
			66.899,237.721 60.129,237.044 		"/>
		<path fill="#FFFFFF" d="M171.633,256.144c0,0,3.904,5.316,4.236,5.233s26.581-1.496,26.581-1.496l-3.239-5.814l-28.077,1.828"/>
		<polygon fill="#CCCCCC" points="89.42,215.631 255.9,216.482 292.852,235.974 67.977,234.933 		"/>
		<path fill="#808080" d="M89.038,212.856c1.896,0,166.582,1.662,166.582,1.662l5.021-111.454l-1.869-2.833
			c0,0-168.772-0.415-169.604-0.318s-3.564,1.977-3.516,2.953S89.038,212.856,89.038,212.856z"/>
		<polygon fill="#F2EFED" points="93.333,107.52 95.184,204.878 250.312,207.909 253.025,107.132 		"/>
		<polyline fill="#18ABD3" points="252.558,122.239 253.025,107.132 93.333,107.52 93.568,119.904 		"/>
		<path fill="#F2E9E2" d="M87.525,119.623c-5.077-13.225-8.088-52.71-17.005-49.242c-16.461,6.401-28.295,4.472-30.978-0.64
			c-2.682-5.11,3.308-17.475,3.308-17.475l20.082,8.036c0,0-6.445,7.403,0.864,8.273c7.309,0.87,15.442-8.355,25.287,4.848
			s6.385,38.654,14.597,48.489c8.212,9.834,17.039,9.53,17.852,10.166c0.813,0.636-6.782,13.656-13.897,8.352
			C100.52,135.127,92.604,132.849,87.525,119.623z"/>
		<polygon fill="#8E8780" points="102.862,125.308 98.123,132.205 93.208,127.087 99.676,121.131 		"/>
		<path fill="#666666" d="M151.108,57.938c1.008,0.345,27.354,49.775,27.394,50.436c0.425,7.262-8.336,88.837-8.336,88.837
			l-28.818,17.387"/>
		<path fill="#E54848" d="M114.541,59.188c0,0-15.399,141.788-13.042,141.708c2.357-0.078,36.217,16.053,36.217,16.053l12.932-8.618
			l10.707-134.729l-10.731-17.348L114.541,59.188z"/>
		<polygon fill="#FFFFFF" points="113.168,91.633 145.978,92.882 141.901,131.835 109.332,124.705 		"/>
		<path fill="#CCCCCC" d="M67.431,235.865c0.506,0,101.898,0.71,101.898,0.71s-0.335,3.539,2.36,4.381
			c2.695,0.843,29.654,1.517,31.507,1.011s2.864-4.381,3.37-4.381s86.269-0.336,86.269-0.336l-0.843,7.75L68.74,243.82
			L67.431,235.865z"/>
		<path fill="#666666" d="M192.94,41.754c0,0-5.392,147.773-3.312,147.544c2.082-0.229,36.292,2.023,36.292,2.023l10.582-141.654
			L192.94,41.754z"/>
		<polygon fill="#FFFFFF" points="194.765,70.029 232.462,73.18 229.777,107.959 191.982,105.819 		"/>
		<path fill="#F2E9E2" d="M255.271,118.769c-4.592-8.094-40.5-41.086-24.348-52.81c17.022-12.355,50.646-8.163,62.874-14.277
			l-14.761-16.33c0,0-21.034,4.646-35.952,11.006s-21.008,26.32-20.397,36.898c0.956,16.567,4.452,23.291,9.06,28.554
			c12.021,13.733,7.754,15.402,7.754,15.402l10.341,6.917C249.841,134.129,259.862,126.862,255.271,118.769z"/>
		<path fill="#8E8780" d="M278.795,39.479c0.205,0.274,8.502,9.257,8.502,9.257l-7.062,1.439l-8.159-8.914L278.795,39.479z"/>
		<path fill="#8E8780" d="M266.698,42.363c0.063,0.318,4.741,5.099,4.741,5.099s-7.155,1.043-11.775,1.938
			s-15.203,3.727-15.203,3.727l-0.264-4.134c0,0,6.524-2.275,11.592-3.915S266.698,42.363,266.698,42.363z"/>
		<polygon fill="#8E8780" points="243.139,123.734 253.721,118.219 250.74,114.939 240.902,119.263 		"/>
		<polyline fill="#8E8780" points="233.282,109.767 242.076,105.593 244.163,108.127 234.325,112.151 232.686,109.617 		"/>
		<path fill="#FFFFFF" d="M169.964,228c-0.14,1-5.149,4.7-4.454,4.7s40.086-0.332,40.086-0.332L201.977,228H169.964z"/>
		<path fill="#808080" d="M103.57,218.054c0,0-7.377,5.846-6.82,5.846c53.81,0,51.553,0.462,160.198,0.929l-9.452-6.236
			L103.57,218.054z"/>
	</g>
	<path display="inline" fill="#8E8780" d="M43.908,56.474l15.073,5.366c0,0-3.214,3.444-0.394,5.651l-15.108,3.274
		c0,0-3.902-1.87-2.597-6.213C42.189,60.21,43.908,56.474,43.908,56.474z"/>
</g>
</svg>
